<?xml version="1.0" encoding="iso-8859-1"?>
<!-- Generator: Adobe Illustrator 19.0.0, SVG Export Plug-In . SVG Version: 6.00 Build 0)  -->
<svg version="1.1" id="Capa_1" xmlns="http://www.w3.org/2000/svg" xmlns:xlink="http://www.w3.org/1999/xlink" x="0px" y="0px"
	 viewBox="0 0 512 512" style="enable-background:new 0 0 512 512;" xml:space="preserve">
<g>
	<g>
		<g>
			<path d="M208.749,283.814c-34.126,23.98-45.894,65.773-49.356,82.611l28.75,21.031c7.094-31.124,23.729-59.257,47.583-80.471
				C224.385,302.511,214.883,294.349,208.749,283.814z"/>
			<path d="M310.576,261.264c41.665,0.622,75.775-26.224,88.487-37.818l-10.893-33.915c-24.065,21.012-54.085,33.994-85.877,37.136
				c5.59,8.771,8.552,18.959,8.538,29.359C310.83,257.787,310.739,259.533,310.576,261.264z"/>
			<path d="M281.848,281.884v-0.004c-0.001-8.361-6.78-15.139-15.141-15.138s-15.139,6.779-15.139,15.14s6.778,15.14,15.139,15.14
				C275.068,297.022,281.847,290.245,281.848,281.884z"/>
			<path d="M267.853,309.543c12.263,39.85,48.369,63.961,63.317,72.461l28.884-20.843c-27.409-16.374-49.026-40.893-61.835-70.139
				c-1.086,1.307-2.225,2.578-3.442,3.795C287.401,302.208,278.054,307.32,267.853,309.543z"/>
			<path d="M214.982,219.684c-33.352-25.07-76.766-23.36-93.857-21.438L110,232.085c31.827-2.866,63.754,4.281,91.321,20.443
				C202.059,240.357,206.871,228.788,214.982,219.684z"/>
			<circle cx="45.714" cy="45.714" r="9.143"/>
			<circle cx="466.286" cy="466.286" r="9.143"/>
			<path d="M277.877,205.744c13.502-39.44-1.529-80.198-8.627-95.865l-35.625-0.121c12.562,29.387,15.629,61.965,8.771,93.18
				C254.203,199.867,266.7,200.856,277.877,205.744z"/>
			<circle cx="45.714" cy="466.286" r="9.143"/>
			<circle cx="466.286" cy="45.714" r="9.143"/>
			<path d="M256,36.571C134.813,36.571,36.571,134.813,36.571,256S134.813,475.429,256,475.429S475.429,377.187,475.429,256
				C475.29,134.87,377.13,36.71,256,36.571z M256,457.143c-111.088,0-201.143-90.055-201.143-201.143S144.912,54.857,256,54.857
				S457.143,144.912,457.143,256C457.017,367.036,367.036,457.017,256,457.143z"/>
			<path d="M484.571,0H27.429C12.287,0.017,0.017,12.287,0,27.429v457.143C0.017,499.713,12.287,511.984,27.429,512h457.143
				c15.142-0.016,27.412-12.287,27.429-27.429V27.429C511.984,12.287,499.713,0.017,484.571,0z M45.714,18.286
				c15.148,0,27.429,12.28,27.429,27.429s-12.28,27.429-27.429,27.429s-27.429-12.28-27.429-27.429
				C18.302,30.573,30.573,18.302,45.714,18.286z M45.714,493.714c-15.148,0-27.429-12.28-27.429-27.429
				c0-15.148,12.28-27.429,27.429-27.429s27.429,12.28,27.429,27.429C73.126,481.427,60.856,493.698,45.714,493.714z
				 M466.286,493.714c-15.148,0-27.429-12.28-27.429-27.429c0-15.148,12.28-27.429,27.429-27.429
				c15.148,0,27.429,12.28,27.429,27.429C493.698,481.427,481.427,493.698,466.286,493.714z M256,493.714
				C124.714,493.714,18.286,387.286,18.286,256S124.714,18.286,256,18.286S493.714,124.714,493.714,256
				C493.567,387.225,387.225,493.567,256,493.714z M466.286,73.143c-15.148,0-27.429-12.28-27.429-27.429
				s12.28-27.429,27.429-27.429c15.148,0,27.429,12.28,27.429,27.429C493.698,60.856,481.427,73.126,466.286,73.143z"/>
			<path d="M256,73.143C155.011,73.143,73.143,155.011,73.143,256S155.011,438.857,256,438.857S438.857,356.989,438.857,256
				C438.743,155.058,356.942,73.257,256,73.143z M385.911,166.817c0.91-0.926,2.005-1.648,3.214-2.12
				c2.355-0.921,4.985-0.832,7.273,0.244c2.288,1.076,4.033,3.046,4.825,5.448l17.009,52.924c1.046,3.267,0.177,6.844-2.25,9.268
				c-8.257,8.247-49.234,46.207-102.397,46.966c15.415,45.315,61.627,69.585,67.37,72.44c1.363,0.671,2.535,1.674,3.41,2.915
				c2.9,4.109,1.98,9.783-2.071,12.763l-45.08,32.522c-2.78,2.004-6.446,2.287-9.5,0.732c-10.391-5.302-59.103-32.546-76.26-82.913
				c-38.397,28.663-47.188,80.142-48.124,86.493c-0.209,1.417-0.747,2.766-1.572,3.937c-1.425,2.014-3.594,3.378-6.027,3.79
				c-0.505,0.08-1.016,0.121-1.527,0.121c-1.929,0.007-3.811-0.598-5.375-1.728l-44.866-32.821
				c-2.762-2.028-4.161-5.428-3.625-8.813c1.821-11.519,12.671-66.259,55.281-98.149c-39.116-27.66-90.81-20.104-97.129-19.043
				c-1.523,0.25-3.085,0.118-4.545-0.384c-4.723-1.643-7.277-6.749-5.759-11.513l17.358-52.808c1.071-3.257,3.873-5.642,7.259-6.179
				c11.519-1.822,66.936-8.409,110.424,22.252c14.202-45.734-8.929-92.576-11.906-98.27c-1.478-2.846-1.37-6.255,0.284-9.002
				c1.654-2.747,4.617-4.437,7.823-4.462h0.027l55.589,0.183c3.43,0.012,6.566,1.94,8.125,4.996
				c5.286,10.4,28.667,61.086,12.953,111.899C343.938,207.86,381.417,171.404,385.911,166.817z"/>
		</g>
	</g>
</g>
<g>
</g>
<g>
</g>
<g>
</g>
<g>
</g>
<g>
</g>
<g>
</g>
<g>
</g>
<g>
</g>
<g>
</g>
<g>
</g>
<g>
</g>
<g>
</g>
<g>
</g>
<g>
</g>
<g>
</g>
</svg>
