<?xml version="1.0" encoding="iso-8859-1"?>
<!-- Generator: Adobe Illustrator 19.0.0, SVG Export Plug-In . SVG Version: 6.00 Build 0)  -->
<svg version="1.1" id="Capa_1" xmlns="http://www.w3.org/2000/svg" xmlns:xlink="http://www.w3.org/1999/xlink" x="0px" y="0px"
	 viewBox="0 0 512 512" style="enable-background:new 0 0 512 512;" xml:space="preserve">
<g>
	<g>
		<g>
			<path d="M420.571,0H91.429C81.334,0.012,73.154,8.192,73.143,18.286v475.429c0.012,10.094,8.192,18.274,18.286,18.286h329.143
				c10.094-0.012,18.274-8.192,18.286-18.286V18.286C438.846,8.192,430.666,0.012,420.571,0z M94.08,20.937
				c2.188-2.091,5.245-3.009,8.223-2.469c0.606,0.084,1.195,0.268,1.741,0.545c0.582,0.201,1.134,0.479,1.643,0.826
				c0.481,0.337,0.94,0.704,1.376,1.098c3.536,3.605,3.536,9.377,0,12.982c-0.435,0.393-0.894,0.758-1.375,1.094
				c-0.508,0.347-1.061,0.625-1.643,0.826c-0.547,0.276-1.135,0.461-1.741,0.549c-0.572,0.105-1.151,0.167-1.732,0.183
				c-2.432,0.024-4.771-0.932-6.491-2.652c-1.72-1.72-2.675-4.059-2.652-6.491C91.46,25.007,92.408,22.688,94.08,20.937z
				 M107.063,491.063c-1.745,1.682-4.068,2.631-6.491,2.651c-1.194-0.015-2.374-0.263-3.473-0.732
				c-1.13-0.421-2.158-1.075-3.018-1.92c-3.536-3.605-3.536-9.377,0-12.982c2.188-2.091,5.245-3.009,8.223-2.469
				c0.606,0.084,1.195,0.268,1.741,0.545c0.582,0.201,1.134,0.479,1.643,0.826c0.455,0.366,0.92,0.732,1.375,1.098
				C110.598,481.685,110.598,487.457,107.063,491.063L107.063,491.063z M420.384,486.397L420.384,486.397
				c-0.095,0.574-0.279,1.13-0.544,1.648c-0.201,0.582-0.477,1.136-0.821,1.647c-0.366,0.455-0.732,0.911-1.098,1.37
				c-0.455,0.366-0.92,0.732-1.375,1.094c-0.508,0.347-1.061,0.625-1.643,0.826c-0.547,0.276-1.135,0.461-1.741,0.549
				c-0.572,0.105-1.151,0.166-1.732,0.183c-0.584-0.017-1.166-0.078-1.741-0.183c-0.603-0.088-1.188-0.273-1.732-0.549
				c-0.585-0.201-1.14-0.479-1.652-0.826c-0.455-0.362-0.911-0.728-1.366-1.094c-1.687-1.742-2.637-4.067-2.651-6.491
				c0.014-1.196,0.263-2.378,0.732-3.478c0.441-1.118,1.093-2.141,1.92-3.013c3.666-3.384,9.316-3.384,12.982,0
				c0.366,0.455,0.732,0.911,1.098,1.46c0.359,0.468,0.637,0.993,0.821,1.554c0.469,1.1,0.718,2.282,0.732,3.478
				C420.558,485.184,420.495,485.795,420.384,486.397z M420.571,228.571c0.001,2.425-0.962,4.751-2.677,6.466
				c-1.715,1.715-4.041,2.678-6.466,2.677c-10.099,0-18.286,8.187-18.286,18.286s8.187,18.286,18.286,18.286
				c2.425-0.001,4.751,0.962,6.466,2.677c1.715,1.715,2.678,4.041,2.677,6.466v137.143c-0.001,2.425-0.964,4.75-2.679,6.464l-64,64
				c-1.714,1.715-4.039,2.679-6.464,2.679H164.571c-2.425,0-4.75-0.964-6.464-2.679l-64-64c-1.715-1.714-2.678-4.039-2.679-6.464
				V283.429c-0.001-2.425,0.962-4.751,2.677-6.466c1.715-1.715,4.041-2.678,6.466-2.677c10.099,0,18.286-8.187,18.286-18.286
				s-8.187-18.286-18.286-18.286c-2.425,0.001-4.751-0.962-6.466-2.677c-1.715-1.715-2.678-4.041-2.677-6.466V91.429
				c0.001-2.425,0.964-4.75,2.679-6.464l64-64c1.714-1.715,4.039-2.679,6.464-2.679h182.857c2.425,0,4.75,0.964,6.464,2.679l64,64
				c1.715,1.714,2.678,4.039,2.679,6.464V228.571z M420.384,29.165c-0.082,0.605-0.266,1.193-0.545,1.737
				c-0.183,0.561-0.461,1.087-0.821,1.554c-0.366,0.549-0.732,1.005-1.098,1.464c-0.455,0.366-0.92,0.732-1.375,1.094
				c-0.508,0.347-1.061,0.625-1.643,0.826c-0.547,0.276-1.135,0.461-1.741,0.549c-0.572,0.105-1.151,0.166-1.732,0.183
				c-2.432,0.024-4.771-0.932-6.491-2.652c-1.72-1.72-2.675-4.059-2.652-6.491c0.015-2.425,0.965-4.75,2.651-6.491l1.366-1.098
				c0.511-0.347,1.067-0.625,1.652-0.826c0.543-0.276,1.129-0.46,1.732-0.544c1.141-0.277,2.332-0.277,3.473,0
				c0.606,0.084,1.195,0.268,1.741,0.545c0.582,0.201,1.135,0.479,1.643,0.826c0.455,0.366,0.92,0.732,1.375,1.098
				c0.366,0.455,0.732,0.911,1.098,1.371c0.343,0.51,0.619,1.062,0.821,1.643c0.265,0.518,0.449,1.073,0.545,1.647
				c0.107,0.605,0.169,1.217,0.188,1.831C420.558,28.012,420.495,28.593,420.384,29.165z"/>
			<path d="M182.857,301.071c-0.004,3.058,1.525,5.914,4.071,7.607l69.536,46.357c1.501,1.003,3.266,1.537,5.071,1.536h67.607
				v-18.286h-54.857c-5.049,0-9.143-4.093-9.143-9.143s4.093-9.143,9.143-9.143h54.857V155.455l-146.286-0.027V301.071z
				 M283.429,182.857c0-5.049,4.093-9.143,9.143-9.143c5.049,0,9.143,4.093,9.143,9.143v18.286c0,5.049-4.093,9.143-9.143,9.143
				c-5.049,0-9.143-4.093-9.143-9.143V182.857z M246.857,182.857c0-5.049,4.093-9.143,9.143-9.143s9.143,4.093,9.143,9.143v18.286
				c0,5.049-4.093,9.143-9.143,9.143s-9.143-4.093-9.143-9.143V182.857z M210.286,182.857c0-5.049,4.093-9.143,9.143-9.143
				c5.049,0,9.143,4.093,9.143,9.143v18.286c0,5.049-4.093,9.143-9.143,9.143c-5.049,0-9.143-4.093-9.143-9.143V182.857z"/>
			<path d="M182.857,73.143v27.429h27.429c0-5.049,4.093-9.143,9.143-9.143c5.049,0,9.143,4.093,9.143,9.143h18.286
				c0-5.049,4.093-9.143,9.143-9.143s9.143,4.093,9.143,9.143h18.286c0-5.049,4.093-9.143,9.143-9.143
				c5.049,0,9.143,4.093,9.143,9.143h27.438l-0.009-27.429H182.857z"/>
			<path d="M168.357,36.571l-58.643,58.643v125.371c16.147,4.172,27.429,18.738,27.429,35.415s-11.281,31.244-27.429,35.415v125.371
				l58.643,58.643h175.286l58.643-58.643V291.415c-16.147-4.172-27.429-18.738-27.429-35.415s11.281-31.244,27.429-35.415V95.214
				l-58.643-58.643H168.357z M173.714,438.857c-25.247,0-45.714-20.467-45.714-45.714s20.467-45.714,45.714-45.714
				s45.714,20.467,45.714,45.714C219.399,418.378,198.949,438.828,173.714,438.857z M347.429,356.571
				c-0.012,10.094-8.192,18.274-18.286,18.286h-67.607c-5.419,0.008-10.719-1.598-15.223-4.612l-69.527-46.353
				c-7.64-5.079-12.226-13.648-12.215-22.821V155.429c0.012-10.094,8.192-18.274,18.286-18.286h146.286
				c10.094,0.012,18.274,8.192,18.286,18.286V356.571z M347.429,100.571c-0.012,10.094-8.192,18.274-18.286,18.286H182.857
				c-10.094-0.012-18.274-8.192-18.286-18.286V73.143c0.012-10.094,8.192-18.274,18.286-18.286h146.286
				c10.094,0.012,18.274,8.192,18.286,18.286V100.571z"/>
			<path d="M173.714,365.714c-15.148,0-27.429,12.28-27.429,27.429s12.28,27.429,27.429,27.429s27.429-12.28,27.429-27.429
				C201.126,378.001,188.856,365.731,173.714,365.714z M182.67,394.969c-0.096,0.574-0.28,1.129-0.545,1.647
				c-0.201,0.583-0.477,1.136-0.821,1.647c-0.34,0.477-0.706,0.935-1.098,1.371c-3.605,3.536-9.377,3.536-12.982,0
				c-0.392-0.436-0.759-0.893-1.098-1.37c-0.348-0.509-0.624-1.063-0.821-1.647c-0.264-0.519-0.45-1.074-0.554-1.647
				c-0.1-0.604-0.159-1.214-0.179-1.826c0-5.049,4.093-9.143,9.143-9.143s9.143,4.093,9.143,9.143
				C182.843,393.756,182.781,394.366,182.67,394.969z"/>
		</g>
	</g>
</g>
<g>
</g>
<g>
</g>
<g>
</g>
<g>
</g>
<g>
</g>
<g>
</g>
<g>
</g>
<g>
</g>
<g>
</g>
<g>
</g>
<g>
</g>
<g>
</g>
<g>
</g>
<g>
</g>
<g>
</g>
</svg>
