<?xml version="1.0" encoding="iso-8859-1"?>
<!-- Generator: Adobe Illustrator 19.0.0, SVG Export Plug-In . SVG Version: 6.00 Build 0)  -->
<svg version="1.1" id="Capa_1" xmlns="http://www.w3.org/2000/svg" xmlns:xlink="http://www.w3.org/1999/xlink" x="0px" y="0px"
	 viewBox="0 0 508.312 508.312" style="enable-background:new 0 0 508.312 508.312;" xml:space="preserve">
<g>
	<g>
		<g>
			<path d="M225.224,158.768l21.359-21.354l-17.875-17.872l-20.257,27.007c-1.477,1.969-2.873,4.016-4.344,5.991l6.228,6.228
				C214.514,162.714,221.046,162.714,225.224,158.768z"/>
			<path d="M169.975,505.374c21.27-3.404,65.405-13.426,79.338-39.249c3.663-7.481,6.717-15.244,9.134-23.214
				c0.675-2.016,1.403-4.069,2.107-6.111l-14.241,7.526C217.23,459.656,191.325,480.373,169.975,505.374z"/>
			<path d="M63.854,261.866l7.507-14.205c-2.039,0.703-4.086,1.429-6.101,2.102c-7.991,2.42-15.772,5.484-23.268,9.161
				c-25.755,13.893-35.779,58.001-39.184,79.268C27.806,316.845,48.521,290.943,63.854,261.866z"/>
			<path d="M280.872,103.134c4.083-4.125,4.083-10.768,0-14.893l-7.886-7.886c-13.054,4.513-24.465,12.817-32.775,23.85
				l-0.421,0.561l19.724,19.721L280.872,103.134z"/>
			<polygon points="431.577,105.442 431.099,104.964 431.086,104.955 417.176,91.045 402.773,76.647 376.775,102.642 
				405.578,131.441 			"/>
			<polygon points="493.336,0 422.657,70.67 430.104,78.116 437.551,85.562 508.228,14.888 			"/>
			<path d="M399.119,150.838l-0.006-0.003l-14.403-14.401l-42.711,42.708l0.98,0.979c7.124,7.146,7.126,18.708,0.005,25.857
				l-28.808,28.804c-7.145,7.123-18.705,7.125-25.853,0.004l-0.005-0.004l-0.983-0.983l-90.91,90.902
				c-2.309,2.31-5.676,3.211-8.83,2.366c-3.155-0.845-5.619-3.31-6.464-6.464c-0.845-3.155,0.057-6.521,2.366-8.83l90.91-90.902
				l-0.977-0.977c-7.13-7.146-7.13-18.715,0-25.862l28.799-28.799c7.145-7.122,18.705-7.124,25.853-0.004l0.987,0.987l42.711-42.709
				l-14.4-14.398l-0.003-0.005l-12.349-12.348c-13.039-13.041-30.724-20.367-49.165-20.366c-0.383,0-0.768,0.035-1.151,0.041
				c10.297,11.347,9.896,28.772-0.911,39.633l-55.643,55.634c-11.264,11.226-29.486,11.226-40.75,0l-4.166-4.166
				c-47.582,64.997-91.35,132.702-131.084,202.773c-12.29,21.733-8.577,48.995,9.078,66.65c17.655,17.655,44.916,21.368,66.65,9.078
				c70.078-39.73,137.791-83.495,202.796-131.074l-4.167-4.167c-11.226-11.264-11.226-29.486,0-40.75l55.643-55.634
				c10.994-10.414,28.083-10.826,39.566-0.954c0.336-18.809-6.974-36.949-20.258-50.27L399.119,150.838z"/>
			<path d="M58.361,449.828c-23.447-23.447-28.402-59.643-12.118-88.529c27.681-48.965,57.76-96.943,89.456-143.733
				c-2.804,1.464-5.578,2.905-8.279,4.282c-10.507,5.473-20.233,10.301-29.482,14.664l-17.92,33.903
				c-19.296,36.628-46.539,68.477-79.734,93.216c-0.472,9.853-0.112,19.728,1.078,29.521c1.073,15.358,5.99,30.2,14.299,43.161
				c2.114,2.604,4.391,5.072,6.817,7.388l41.451,41.585c2.512,2.666,5.235,5.125,8.143,7.353c2.244,1.524,4.607,2.865,7.067,4.009
				c20.53,9.079,42.982,12.956,65.368,11.287c24.742-33.219,56.607-60.476,93.257-79.773l33.944-17.941
				c4.355-9.233,9.191-18.97,14.685-29.515c1.288-2.526,2.631-5.109,3.985-7.707c-46.667,31.591-94.669,61.354-143.489,88.948
				C118.004,478.23,81.808,473.275,58.361,449.828z"/>
			<polygon points="286.358,206.96 301.242,221.848 301.251,221.857 330.05,193.054 315.157,178.161 			"/>
			<path d="M349.443,282.973c-4.083,4.123-4.083,10.766,0,14.888l6.229,6.229c1.977-1.472,4.024-2.867,5.994-4.345l27.008-20.255
				l-17.873-17.873L349.443,282.973z"/>
			<path d="M405.09,227.335l-21.359,21.355l19.719,19.719l0.564-0.423c11.034-8.305,19.338-19.713,23.851-32.765l-7.887-7.887
				C415.801,223.388,409.269,223.388,405.09,227.335z"/>
		</g>
	</g>
</g>
<g>
</g>
<g>
</g>
<g>
</g>
<g>
</g>
<g>
</g>
<g>
</g>
<g>
</g>
<g>
</g>
<g>
</g>
<g>
</g>
<g>
</g>
<g>
</g>
<g>
</g>
<g>
</g>
<g>
</g>
</svg>
